<svg width="198" height="198" xmlns="http://www.w3.org/2000/svg">
 <defs>
  <style>.cls-1,.cls-2{fill:#fff;}.cls-2{opacity:0.7;}</style>
 </defs>
 <g>
  <title>background</title>
  <rect fill="none" id="canvas_background" height="200" width="200" y="-1" x="-1"/>
 </g>
 <g>
  <title>Layer 1</title>
  <polygon id="svg_7" points="125.58 77.54 125.58 100.01 109.94 109.04 99 102.28 99 160.93 99.31 160.94 158.26 127.07 158.26 59.42 157.16 59.42 125.58 77.54" class="cls-2"/>
  <polygon id="svg_8" points="98.51 25.48 39.74 59.44 79.39 82.72 87.41 77.84 106.9 88.71 106.9 66.13 125.58 54.91 125.58 77.54 158.26 59.42 158.26 59.34 98.51 25.48" class="cls-1"/>
  <polygon id="svg_9" points="91.1 97.76 91.1 120.33 73.32 131.6 73.32 86.47 80.06 82.31 40.08 59.43 39.74 59.44 39.74 127.07 99 160.93 99 102.28 91.1 97.76" class="cls-1"/>
 </g>
</svg>